<svg height="11cm" viewBox="315 5 200 260" width="23cm" xmlns="http://www.w3.org/2000/svg"><ellipse cx="355" cy="45" fill="#7f7f7f" rx="35" ry="35"/><ellipse cx="355" cy="45" fill="none" rx="35" ry="35" stroke="#000" stroke-width="4"/><path d="m310.264 44.971-155.893-.457" fill="none" stroke="#000" stroke-width="2"/><path d="m317.764 44.9934-10.015 4.9707 2.515-4.9926-2.485-5.0074z" stroke="#000" stroke-width="2"/><path d="m154.371 44.5144c.012-4 4.024-7.9882 8.024-7.9765s7.988 4.0234 7.976 8.0234-4.023 7.9882-8.023 7.9765-7.989-4.0234-7.977-8.0234z" stroke="#000" stroke-width="2"/><path d="m313.795 62.409-159.458 72.191" fill="none" stroke="#000" stroke-width="2"/><path d="m320.627 59.3162-7.048 8.6793.216-5.5861-4.34-3.5238z" stroke="#000" stroke-width="2"/><path d="m322.945 76.183-168.643 148.503" fill="none" stroke="#000" stroke-width="2"/><path d="m328.574 71.2266-4.201 10.3612-1.428-5.4047-5.181-2.1003z" stroke="#000" stroke-width="2"/><ellipse cx="355" cy="135" fill="#7f7f7f" rx="35" ry="35" stroke="#000" stroke-width="4"/><path d="m310.264 134.977-155.927-.377" fill="none" stroke="#000" stroke-width="2"/><path d="m317.764 134.995-10.012 4.975 2.512-4.993-2.488-5.007z"/><path d="m317.764 134.995-10.012 4.975 2.512-4.993-2.488-5.007z" fill="none" stroke="#000" stroke-width="2"/><path d="m154.337 134.6c.009-4 4.019-7.99 8.019-7.98 4 .009 7.99 4.019 7.981 8.019-.01 4-4.02 7.99-8.02 7.98-4-.009-7.99-4.019-7.98-8.019z"/><g stroke="#000"><path d="m154.337 134.6c.009-4 4.019-7.99 8.019-7.98 4 .009 7.99 4.019 7.981 8.019-.01 4-4.02 7.99-8.02 7.98-4-.009-7.99-4.019-7.98-8.019" fill="none" stroke-width="2"/><path d="m313.796 152.413-159.494 72.273" fill="none" stroke-width="2"/><path d="m320.627 149.317-7.044 8.682.213-5.586-4.341-3.523z" stroke-width="2"/><path d="m313.812 117.551-159.441-73.037" fill="none" stroke-width="2"/><path d="m320.631 120.675-11.174.381 4.355-3.505-.19-5.587z" stroke-width="2"/><ellipse cx="355" cy="225" fill="#7f7f7f" rx="35" ry="35" stroke-width="4"/><path d="m310.264 224.982-155.962-.296" fill="none" stroke-width="2"/><path d="m317.764 224.996-10.01 4.981 2.51-4.995-2.491-5.005z" stroke-width="2"/><path d="m154.302 224.686c.008-4 4.015-7.992 8.015-7.985 4 .008 7.993 4.015 7.985 8.015s-4.015 7.993-8.015 7.985c-4-.007-7.993-4.015-7.985-8.015z" stroke-width="2"/><path d="m313.81 207.556-159.473-72.956" fill="none" stroke-width="2"/><path d="m320.631 210.676-11.174.386 4.353-3.506-.193-5.587z" stroke-width="2"/><path d="m322.963 193.798-168.592-149.284" fill="none" stroke-width="2"/><path d="m328.578 198.77-10.802-2.886 5.187-2.086 1.443-5.401z" stroke-width="2"/><ellipse cx="542.612" cy="90.185" fill="#7f7f7f" rx="35" ry="35" stroke-width="4"/><path d="m498.524 86.694-108.524-41.694" fill="none" stroke-width="2"/><path d="m505.525 89.3835-11.128 1.081 4.127-3.7708-.541-5.564z" stroke-width="2"/><path d="m500.856 106.04-110.856 28.96" fill="none" stroke-width="2"/><path d="m508.113 104.145-8.412 7.365 1.155-5.47-3.683-4.206z" stroke-width="2"/><path d="m510.485 121.286-120.485 103.714" fill="none" stroke-width="2"/><path d="m516.169 116.393-4.317 10.313-1.367-5.42-5.156-2.159z" stroke-width="2"/><ellipse cx="542.612" cy="180.185" fill="#7f7f7f" rx="35" ry="35" stroke-width="4"/><path d="m498.514 183.652-108.514 41.348" fill="none" stroke-width="2"/><path d="m505.522 180.982-7.564 8.233.556-5.563-4.116-3.782z" stroke-width="2"/><path d="m500.863 164.304-110.863-29.304" fill="none" stroke-width="2"/><path d="m508.114 166.22-10.946 2.279 3.695-4.195-1.139-5.473z" stroke-width="2"/><path d="m510.496 149.073-120.496-104.073" fill="none" stroke-width="2"/><path d="m516.172 153.975-10.836-2.752 5.16-2.15 1.376-5.418z" stroke-width="2"/><path d="m668.254 90.205-90.642-.02" fill="none" stroke-width="2"/><path d="m675.754 90.2063-10.001 4.9979 2.501-4.9995-2.499-5.0005z" stroke-width="2"/><path d="m668.27 180.189-90.658-.004" fill="none" stroke-width="2"/><path d="m675.77 180.19-10 4.999 2.5-5-2.5-5z" stroke-width="2"/></g></svg>